<svg width="1200" height="1500" viewBox="0 0 1200 1500" fill="none" xmlns="http://www.w3.org/2000/svg">
  <rect width="1200" height="1500" fill="#050505"/>
  <rect width="1200" height="1500" fill="url(#bg)"/>
  <circle cx="254" cy="329" r="214" fill="#FB923C" fill-opacity="0.18"/>
  <circle cx="865" cy="545" r="291" fill="#FBBF24" fill-opacity="0.12"/>
  <path d="M138 1161C281 968 444 860 626 860C820 860 998 978 1062 1137C1110 1257 1075 1371 960 1500H163C82 1384 72 1250 138 1161Z" fill="#120C08"/>
  <path d="M180 1120C314 964 467 880 621 880C780 880 938 980 1002 1106C1052 1203 1038 1316 951 1428H222C149 1327 127 1181 180 1120Z" fill="url(#petal)"/>
  <rect x="90" y="100" width="220" height="30" rx="15" fill="#FDE68A" fill-opacity="0.65"/>
  <defs>
    <linearGradient id="bg" x1="81" y1="58" x2="1085" y2="1433" gradientUnits="userSpaceOnUse">
      <stop stop-color="#1D130C"/>
      <stop offset="0.56" stop-color="#0A0908"/>
      <stop offset="1" stop-color="#100702"/>
    </linearGradient>
    <linearGradient id="petal" x1="591" y1="880" x2="591" y2="1428" gradientUnits="userSpaceOnUse">
      <stop stop-color="#F59E0B"/>
      <stop offset="1" stop-color="#9A3412"/>
    </linearGradient>
  </defs>
</svg>
