<svg width="1200" height="1800" viewBox="0 0 1200 1800" fill="none" xmlns="http://www.w3.org/2000/svg">
  <rect width="1200" height="1800" fill="#050505"/>
  <rect width="1200" height="1800" fill="url(#bg)"/>
  <circle cx="394" cy="499" r="132" fill="#FCD34D" fill-opacity="0.24"/>
  <circle cx="796" cy="731" r="186" fill="#FB923C" fill-opacity="0.18"/>
  <circle cx="616" cy="1129" r="244" fill="#F59E0B" fill-opacity="0.16"/>
  <path d="M287 1410C287 1241 424 1104 593 1104C762 1104 899 1241 899 1410V1800H287V1410Z" fill="#150D07"/>
  <path d="M356 1364C356 1233 462 1127 593 1127C724 1127 830 1233 830 1364V1800H356V1364Z" fill="url(#lantern)"/>
  <rect x="120" y="120" width="214" height="26" rx="13" fill="#FFF7ED" fill-opacity="0.4"/>
  <defs>
    <linearGradient id="bg" x1="1177" y1="24" x2="132" y2="1764" gradientUnits="userSpaceOnUse">
      <stop stop-color="#211308"/>
      <stop offset="0.53" stop-color="#080808"/>
      <stop offset="1" stop-color="#100702"/>
    </linearGradient>
    <linearGradient id="lantern" x1="593" y1="1127" x2="593" y2="1800" gradientUnits="userSpaceOnUse">
      <stop stop-color="#FBBF24"/>
      <stop offset="1" stop-color="#9A3412"/>
    </linearGradient>
  </defs>
</svg>
